# xmcd CD database file
#
# Track frame offsets:
#	180
#	13507
#	29230
#	42793
#	59984
#	78216
#	93192
#	106217
#	117588
#	138454
#	156418
#	166643
#	181232
#	198556
#	210522
#	227057
#	241110
#	260861
#	278099
#	298498
#
# Disc length: 4182 seconds
#
# Revision: 0
# Processed by: cddbd v1.5.1PL0 Copyright (c) Steve Scherf et al.
# Submitted via: CDex 1.50beta10
#
DISCID=26105414
DTITLE=Various Artist - Glory Train Chazq 56
DYEAR=2005
DGENRE=Country
TTITLE0=Karen Cruise/Best Friend
TTITLE1=Steve Zuwala/Between You And Me
TTITLE2=McNichols/One More Reason
TTITLE3=Steve Free/My Guiding Light
TTITLE4=Debbie Bennett/Pictures On The Floor
TTITLE5=Swanns/Holy Ghost
TTITLE6=Two-Hearts-N-Him/Faith No Doubt
TTITLE7=Wyley Chaney/He's Still Alive
TTITLE8=David Ethan/She Calls Me Daddy
TTITLE9=Kim Norton/I Believe In The Family
TTITLE10=Katherine Ryals/Jesus Hold My Hand
TTITLE11=Donnie Davis/Little Girl With The Roses
TTITLE12=Twice Robin/Lois Jean
TTITLE13=Lynn Hartline/Walking Shoes
TTITLE14=Sharon Lee/There's Somebody Out There
TTITLE15=Collins Family/All Dressed Up
TTITLE16=Ladana Guthrie/The Middle Man
TTITLE17=Starla Moore/Angel Baby
TTITLE18=Don Kiser/Redeemed By The Blood At The Cross
TTITLE19=Dolores Shehee/There's A Key To Our House
EXTD=YEAR: 2005
EXTT0=
EXTT1=
EXTT2=
EXTT3=
EXTT4=
EXTT5=
EXTT6=
EXTT7=
EXTT8=
EXTT9=
EXTT10=
EXTT11=
EXTT12=
EXTT13=
EXTT14=
EXTT15=
EXTT16=
EXTT17=
EXTT18=
EXTT19=
PLAYORDER=
